<?xml version="1.0" encoding="UTF-8"?>
<svg width="292px" height="62px" viewBox="0 0 292 62" version="1.1" xmlns="http://www.w3.org/2000/svg" xmlns:xlink="http://www.w3.org/1999/xlink">
    <!-- Generator: Sketch Beta 47 (45292) - http://www.bohemiancoding.com/sketch -->
    <title>logo_white_bg copy</title>
    <desc>Created with Sketch Beta.</desc>
    <defs></defs>
    <g id="Page-1" stroke="none" stroke-width="1" fill="none" fill-rule="evenodd">
        <g id="google-copy" transform="translate(-14.000000, -13.000000)">
            <g id="logo_white_bg-copy" transform="translate(14.000000, 13.000000)">
                <polyline id="Fill-11" fill="#00AEEF" points="22.0955751 0.0449484536 12.0617552 0.0449484536 0.684927984 5.92 3.85063226 13.1280412 9.74511412 10.3538144 9.93475889 10.2641237 5.48306473 34.6024742 16.0114485 34.6024742 18.435307 20.7795876 18.4526601 20.7795876 19.9735369 12.1402062 19.9685788 12.1402062 22.0955751 0.0449484536"></polyline>
                <polyline id="Fill-12" fill="#DAEEE8" points="32.2849533 0.0449484536 29.5704301 14.7134021 19.8805737 14.7134021 28.0371583 23.3527835 26.2008267 34.6024742 36.7366475 34.6024742 42.8207741 0.0449484536 32.2849533 0.0449484536"></polyline>
                <path d="M66.6980429,29.3694845 L56.2613827,29.3694845 L53.8871045,34.6024742 L41.7188512,34.6024742 L60.3666343,0.0449484536 L71.9907434,0.0449484536 L78.4206929,34.6024742 L67.242187,34.6024742 L66.6980429,29.3694845 L66.6980429,29.3694845 Z M59.9706114,21.2243299 L65.8074561,21.2243299 L64.7191678,10.7583505 L59.9706114,21.2243299 L59.9706114,21.2243299 Z" id="Fill-13" fill="#DAEEE8"></path>
                <polyline id="Fill-14" fill="#DAEEE8" points="113.24282 17.6694845 105.872704 28.8270103 100.480842 28.8270103 97.0678562 16.4849485 93.9021519 34.6024742 83.3669509 34.6024742 89.4510775 0.0449484536 100.13502 0.0449484536 104.784415 17.0775258 116.210823 0.0449484536 126.894765 0.0449484536 120.810638 34.6024742 110.274817 34.6024742 113.24282 17.6694845"></polyline>
                <polyline id="Fill-15" fill="#DAEEE8" points="128.234054 34.6024742 134.2686 0.0449484536 160.929804 0.0449484536 159.395913 8.88226804 143.320729 8.88226804 142.578884 12.9795876 155.538563 12.9795876 154.054252 21.6189691 141.045612 21.6189691 140.303766 25.7657732 156.379569 25.7657732 154.845678 34.6024742 128.234054 34.6024742"></polyline>
                <path d="M178.03254,22.4583505 L174.965997,22.4583505 L172.78942,34.6024742 L162.253599,34.6024742 L168.337106,0.0449484536 L184.116667,0.0449484536 C194.206884,0.0449484536 198.510457,3.69814433 198.510457,10.1657732 C198.510457,14.0657732 196.18576,20.7307216 188.221919,22.1620619 L194.157304,34.6024742 L183.374821,34.6024742 L178.03254,22.4583505 L178.03254,22.4583505 Z M183.127539,8.14123711 L177.537976,8.14123711 L176.301567,14.3620619 L182.385694,14.3620619 C185.84764,14.3620619 187.677774,12.8806186 187.677774,10.4620619 C187.677774,8.38865979 185.600358,8.14123711 183.127539,8.14123711 L183.127539,8.14123711 Z" id="Fill-16" fill="#DAEEE8"></path>
                <polyline id="Fill-17" fill="#DAEEE8" points="201.676781 34.6024742 207.760908 0.0449484536 218.296729 0.0449484536 213.647333 25.9637113 229.129412 25.9637113 227.744261 34.6024742 201.676781 34.6024742"></polyline>
                <polyline id="Fill-18" fill="#DAEEE8" points="235.219736 34.6024742 241.303243 0.0449484536 251.839684 0.0449484536 245.755557 34.6024742 235.219736 34.6024742"></polyline>
                <polyline id="Fill-19" fill="#DAEEE8" points="267.044732 15.5960825 263.730907 34.6024742 253.195086 34.6024742 259.278593 0.0449484536 269.914194 0.0449484536 277.431812 19.0024742 280.795838 0.0449484536 291.331658 0.0449484536 285.247532 34.6024742 274.61255 34.6024742 267.044732 15.5960825"></polyline>
                <text id="PEST-CONTROL" font-family="VerbRegular-BoldItalic, Verb" font-size="15.5063505" font-style="italic" font-weight="bold" fill="#9E9F9E">
                    <tspan x="172.401702" y="60.4143343">PES</tspan>
                    <tspan x="202.127376" y="60.4143343" letter-spacing="-0.626715">T</tspan>
                    <tspan x="210.261749" y="60.4143343"> </tspan>
                    <tspan x="214.46397" y="60.4143343" letter-spacing="-0.3509604">C</tspan>
                    <tspan x="224.05258" y="60.4143343">ONTROL</tspan>
                </text>
            </g>
        </g>
    </g>
</svg>