<svg xmlns="http://www.w3.org/2000/svg" xmlns:xlink="http://www.w3.org/1999/xlink" width="292" height="62" version="1.1" viewBox="0 0 292 62"><title>logo_white_bg copy</title><desc>Created with Sketch Beta.</desc><g id="Page-1" fill="none" fill-rule="evenodd" stroke="none" stroke-width="1"><g id="google-copy" transform="translate(-14.000000, -13.000000)"><g id="logo_white_bg-copy" transform="translate(14.000000, 13.000000)"><polyline id="Fill-11" fill="#00AEEF" points="22.096 .045 12.062 .045 .685 5.92 3.851 13.128 9.745 10.354 9.935 10.264 5.483 34.602 16.011 34.602 18.435 20.78 18.453 20.78 19.974 12.14 19.969 12.14 22.096 .045"/><polyline id="Fill-12" fill="#DAEEE8" points="32.285 .045 29.57 14.713 19.881 14.713 28.037 23.353 26.201 34.602 36.737 34.602 42.821 .045 32.285 .045"/><path id="Fill-13" fill="#DAEEE8" d="M66.6980429,29.3694845 L56.2613827,29.3694845 L53.8871045,34.6024742 L41.7188512,34.6024742 L60.3666343,0.0449484536 L71.9907434,0.0449484536 L78.4206929,34.6024742 L67.242187,34.6024742 L66.6980429,29.3694845 L66.6980429,29.3694845 Z M59.9706114,21.2243299 L65.8074561,21.2243299 L64.7191678,10.7583505 L59.9706114,21.2243299 L59.9706114,21.2243299 Z"/><polyline id="Fill-14" fill="#DAEEE8" points="113.243 17.669 105.873 28.827 100.481 28.827 97.068 16.485 93.902 34.602 83.367 34.602 89.451 .045 100.135 .045 104.784 17.078 116.211 .045 126.895 .045 120.811 34.602 110.275 34.602 113.243 17.669"/><polyline id="Fill-15" fill="#DAEEE8" points="128.234 34.602 134.269 .045 160.93 .045 159.396 8.882 143.321 8.882 142.579 12.98 155.539 12.98 154.054 21.619 141.046 21.619 140.304 25.766 156.38 25.766 154.846 34.602 128.234 34.602"/><path id="Fill-16" fill="#DAEEE8" d="M178.03254,22.4583505 L174.965997,22.4583505 L172.78942,34.6024742 L162.253599,34.6024742 L168.337106,0.0449484536 L184.116667,0.0449484536 C194.206884,0.0449484536 198.510457,3.69814433 198.510457,10.1657732 C198.510457,14.0657732 196.18576,20.7307216 188.221919,22.1620619 L194.157304,34.6024742 L183.374821,34.6024742 L178.03254,22.4583505 L178.03254,22.4583505 Z M183.127539,8.14123711 L177.537976,8.14123711 L176.301567,14.3620619 L182.385694,14.3620619 C185.84764,14.3620619 187.677774,12.8806186 187.677774,10.4620619 C187.677774,8.38865979 185.600358,8.14123711 183.127539,8.14123711 L183.127539,8.14123711 Z"/><polyline id="Fill-17" fill="#DAEEE8" points="201.677 34.602 207.761 .045 218.297 .045 213.647 25.964 229.129 25.964 227.744 34.602 201.677 34.602"/><polyline id="Fill-18" fill="#DAEEE8" points="235.22 34.602 241.303 .045 251.84 .045 245.756 34.602 235.22 34.602"/><polyline id="Fill-19" fill="#DAEEE8" points="267.045 15.596 263.731 34.602 253.195 34.602 259.279 .045 269.914 .045 277.432 19.002 280.796 .045 291.332 .045 285.248 34.602 274.613 34.602 267.045 15.596"/><text id="PEST-CONTROL" fill="#9E9F9E" font-family="VerbRegular-BoldItalic, Verb" font-size="15.506" font-style="italic" font-weight="bold"><tspan x="172.402" y="60.414">PES</tspan> <tspan x="202.127" y="60.414" letter-spacing="-.627">T</tspan> <tspan x="210.262" y="60.414"> </tspan> <tspan x="214.464" y="60.414" letter-spacing="-.351">C</tspan> <tspan x="224.053" y="60.414">ONTROL</tspan></text></g></g></g></svg>